        <svg id="Layer" xmlns="http://www.w3.org/2000/svg" viewBox="0 0 1597.67 908.1"><defs><style>.cls-1{fill:#f5b4c4;}.cls-2{fill:#fcce44;}.cls-3{fill:#0083c8;}.cls-4{fill:#c64f4b;}.cls-5,.cls-6{fill:none;stroke-miterlimit:10;stroke-width:3px;}.cls-5{stroke:#170c2c;}.cls-6{stroke:#fff;}.cls-7{fill:#fff;}.cls-8{fill:#170c2c;}</style></defs><title>4</title><path class="cls-1" d="M771.88,472.65C786.09,580,674.74,686,589.55,633.36,550.17,609,566.73,550.1,559.38,494.58c-6.21-46.91-48.06-81.71-20.58-122.67C596.36,286.11,756.54,356.79,771.88,472.65Z" transform="translate(-185.62 -252.96)"/><path class="cls-2" d="M956.36,382.25s-33.85,24.57-36.24,53.27,32.39,51.1,32.39,51.1L1038,447.26Z" transform="translate(-185.62 -252.96)"/><path class="cls-3" d="M1132.69,566.77a118,118,0,0,0-236,0Z" transform="translate(-185.62 -252.96)"/><path class="cls-4" d="M1027.62,470.58l-2.11-59.74s23.08-11.88,18.87-28.44-21.11-9.13-21.11-9.13-8.12-22.7-32.61-24.4-37.83,26.49-36,46c2.72,28.77,16.86,42.23,45.64,35.66l-1,33.47" transform="translate(-185.62 -252.96)"/><line class="cls-5" x1="785.65" y1="141.42" x2="780.9" y2="154.39"/><line class="cls-5" x1="804.37" y1="137.49" x2="790.57" y2="136.96"/><line class="cls-5" x1="773.72" y1="137.58" x2="782.08" y2="136.87"/><path class="cls-2" d="M1026.87,449.39c-27.22-3.65-14.84-79.75-14.84-79.75-26.25,15.33-55.67,8.48-55.67,8.48s7.46-41.1,52-36.1,54.36,33.49,54.36,33.49,47.62,11.52,48.27,50-28,45.06-28,45.06S1056.67,453.39,1026.87,449.39Z" transform="translate(-185.62 -252.96)"/><path class="cls-5" d="M881,557.7s-119.38,8.62-134.56-20.1,3.28-187.26,3.28-187.26-18.05-43.3-9-48.64,25,37.34,25,37.34-10.26-59.49-.82-59.9,21.74,49.64,21.74,49.64,10-22.81,33.44-16.92c17.13,4.3,21.33,22.35,15.46,25.15-8.42,4-14.39-8.31-23.46-4.95-6.88,2.54-8,10.77-5.52,16.65,3.4,8.05,11.53,11.35,18.75,5.81,6.38-4.89,3-13.95,10.23-17.51,8.62-4.23,17.18,15.81,5,31.62C829.15,383.39,803.08,380,803.08,380l-.94,100.92,92.32,3.49" transform="translate(-185.62 -252.96)"/><path class="cls-5" d="M1148.38,557.7s119.39,8.62,134.56-20.1-3.28-187.26-3.28-187.26,18-43.3,9-48.64-25,37.34-25,37.34,10.26-59.49.82-59.9-21.74,49.64-21.74,49.64-10-22.81-33.44-16.92c-17.12,4.3-21.33,22.35-15.46,25.15,8.42,4,14.39-8.31,23.46-4.95,6.88,2.54,8,10.77,5.52,16.65-3.4,8.05-11.52,11.35-18.75,5.81-6.38-4.9-3-13.95-10.23-17.51-8.62-4.23-17.18,15.81-5,31.61,11.39,14.77,36.46,10.34,36.46,10.34l.94,100.92-92.32,3.49" transform="translate(-185.62 -252.96)"/><path class="cls-4" d="M1093.81,638.22a157.55,157.55,0,0,0-158.24,0C883.8,668.29,813.48,709.47,744.26,750.1c-77.18,45.3-50.48,163,38.69,170.57l191.57,16.25,25.83,99.72c3.83,14.8,24.85,14.8,28.68,0l25.84-99.72,191.56-16.25c89.18-7.57,115.87-125.27,38.69-170.57C1215.9,709.47,1145.58,668.29,1093.81,638.22ZM859.46,814.46l111-41.7a125.68,125.68,0,0,1,88.42,0l111,41.7Z" transform="translate(-185.62 -252.96)"/><line class="cls-6" x1="829.07" y1="794.78" x2="829.07" y2="561.5"/><circle class="cls-2" cx="671.07" cy="429.04" r="45.85"/><path class="cls-7" d="M1289.05,1107.37a59,59,0,1,1,59-59A59.08,59.08,0,0,1,1289.05,1107.37Z" transform="translate(-185.62 -252.96)"/><path class="cls-8" d="M1289.05,990.84a57.52,57.52,0,1,1-57.52,57.51,57.58,57.58,0,0,1,57.52-57.51m0-3a60.52,60.52,0,1,0,60.51,60.51,60.51,60.51,0,0,0-60.51-60.51Z" transform="translate(-185.62 -252.96)"/><path class="cls-2" d="M1749.62,902.77c-22.37,55.66-72.77,88-137.11,62.17s-98.36-91.92-76-147.58,92.64-79.84,157-54S1772,847.11,1749.62,902.77Z" transform="translate(-185.62 -252.96)"/><circle class="cls-2" cx="83.37" cy="275.39" r="60.31"/><circle class="cls-1" cx="724.25" cy="812.38" r="26.27"/><polygon class="cls-3" points="625.23 614.83 459.92 645.24 581.22 766.84 625.23 614.83"/><polygon class="cls-3" points="231.53 0 159.37 47.95 244.3 85.13 231.53 0"/><polygon class="cls-7" points="1445.19 321.11 1510.85 225.34 1510.85 293.72 1445.19 389.49 1445.19 321.11"/><path class="cls-8" d="M1695,483.14v63.07l-62.66,91.4V574.54l62.66-91.4m3-9.68-68.66,100.15v73.68L1698,547.14V473.46Z" transform="translate(-185.62 -252.96)"/><polygon class="cls-3" points="1443.69 394.33 1208.87 233.34 1208.87 159.66 1443.69 320.65 1443.69 394.33"/><polygon class="cls-4" points="317.5 716.76 257.32 756.22 67.94 664.91 128.11 625.46 317.5 716.76"/><polygon class="cls-3" points="219.42 436.07 159.25 475.52 67.94 664.91 128.11 625.45 219.42 436.07"/><polygon class="cls-1" points="1220.84 552.92 1169.84 522.92 1106.8 363.96 1157.8 393.96 1220.84 552.92"/><polygon class="cls-3" points="1077.81 559.41 1128.81 589.41 1220.84 552.92 1169.84 522.92 1077.81 559.41"/><line class="cls-5" x1="1.24" y1="395.4" x2="58.5" y2="479.96"/><line class="cls-5" x1="1571.97" y1="779.19" x2="1475.12" y2="811.6"/><line class="cls-5" x1="142.96" y1="816.3" x2="43.32" y2="793.88"/><line class="cls-5" x1="248.53" y1="173.23" x2="218.18" y2="270.75"/><line class="cls-5" x1="948.3" y1="830.33" x2="880.96" y2="907.11"/><line class="cls-5" x1="1268.84" y1="703.34" x2="1238.5" y2="800.85"/><line class="cls-5" x1="1561.7" y1="497.38" x2="1473.25" y2="548.45"/><line class="cls-5" x1="1317.53" y1="424.58" x2="1225.53" y2="380.23"/><line class="cls-5" x1="1596.32" y1="163.89" x2="1551.49" y2="72.13"/><line class="cls-5" x1="958.12" y1="98.7" x2="907.06" y2="10.26"/><line class="cls-5" x1="420.82" y1="340.04" x2="325.89" y2="377.69"/><line class="cls-5" x1="442.74" y1="801.4" x2="471.47" y2="899.41"/><line class="cls-5" x1="444.68" y1="110.21" x2="399.84" y2="18.45"/><rect class="cls-2" x="1403.88" y="382.33" width="284.71" height="121.42" transform="translate(335.84 -1049.66) rotate(34.43)"/><rect class="cls-7" x="350.46" y="725.75" width="207.25" height="207.25" transform="translate(-675.82 625.24) rotate(-64.26)"/><path class="cls-8" d="M406.44,693l184,88.71-88.71,184L317.74,877l88.7-184m-1.39-4L313.73,878.41l189.39,91.31,91.31-189.38L405.05,689Z" transform="translate(-185.62 -252.96)"/><rect class="cls-7" x="1229.93" y="630.64" width="96" height="168" transform="translate(-359.07 268.5) rotate(-21.63)"/><path class="cls-8" d="M1290.74,620.81l60.83,153.38-86.45,34.29L1204.29,655.1l86.45-34.29m1.68-3.89-92,36.5,63,159,92-36.5-63-159Z" transform="translate(-185.62 -252.96)"/><line class="cls-5" x1="1310.35" y1="146.48" x2="1410.86" y2="112.84"/></svg>
