<svg id="Layer_1" data-name="Layer 1" xmlns="http://www.w3.org/2000/svg" width="350" height="30" viewBox="0 0 923.45 191">
  <defs>
    <style>.cls-1{fill:#5b2761;}</style>
  </defs>
  <title>logoCircle</title>
  <g id="Layer_1-2" data-name="Layer 1-2">
    <path class="cls-1" d="M513.06,70.36A95.39,95.39,0,1,0,608.45-25h0A95.38,95.38,0,0,0,513.06,70.36Zm141,12.49a23.87,23.87,0,0,1,2.85,7.72c0,.18.07.36.09.55h0a34.15,34.15,0,0,1,0,10.39c-.17.95-.37,1.9-.62,2.82-2.69,9.82-9.29,9.82-22-2.14a143.51,143.51,0,0,1-14.21-16.36,4.33,4.33,0,0,1,.67-6.11l.16-.13a27,27,0,0,1,14-4.79C644.83,73.93,650.78,77.53,654.06,82.85Zm-44,2.94c.18.34,20.06,29.76,34.79,34.51a3.27,3.27,0,0,1,.88,5.78,91,91,0,0,1-10.06,6c-26.25,13.74-58.73,4.64-72.52-20.28h0a12.5,12.5,0,0,1-.68-1.2,25.88,25.88,0,0,1,10.24-35.15c.24-.14.49-.27.75-.4A27.4,27.4,0,0,1,610,85.79Zm-47.46-27.9a23.65,23.65,0,0,1-2.81-7.72,5.3,5.3,0,0,0-.1-.55h0a34.08,34.08,0,0,1,0-10.38,27.23,27.23,0,0,1,.61-2.82c2.69-9.82,9.29-9.82,22,2.14,5.9,5.54,10.18,11.26,14.25,16.36a4.36,4.36,0,0,1-.71,6.12l-.17.13a26.88,26.88,0,0,1-14,4.79C571.79,66.81,565.83,63.2,562.55,57.89Zm91-29h0a12.5,12.5,0,0,1,.68,1.2A25.88,25.88,0,0,1,644,65.26l-.75.4A27.41,27.41,0,0,1,606.63,55c-.21-.34-20.06-29.76-34.79-34.48a3.26,3.26,0,0,1-2.1-4.11A3.2,3.2,0,0,1,571,14.69a90.46,90.46,0,0,1,10.07-6C607.28-5.12,639.75,4,653.54,28.91Z" transform="translate(219.63 25.24)"/></g><path class="cls-1" d="M-136.47,54.09h-32v-2a7.54,7.54,0,0,0-2.84-6,10.77,10.77,0,0,0-7.16-2.39,8.83,8.83,0,0,0-5.91,1.93,6.39,6.39,0,0,0-2.27,5.11A6.54,6.54,0,0,0-183.95,56q2.72,2.16,9.31,4,22,6.36,31.13,14.54t9.09,22q0,16.14-11.7,25.9t-31,9.77q-19.31,0-30.67-9.43t-11.82-26h32.72q1.14,5.91,3.3,8.29c1.44,1.59,3.59,2.39,6.47,2.39a7.9,7.9,0,0,0,5.68-2.16,7.06,7.06,0,0,0,2.28-5.34,7.08,7.08,0,0,0-3.53-6q-3.53-2.39-14-5.8-17.26-5.44-25.11-13.74t-7.84-20.79q0-15.68,11.71-25.22t30.78-9.55q18.85,0,29.65,9.32T-136.47,54.09Z" transform="translate(219.63 25.24)"/><path class="cls-1" d="M-71.77,20.12q25.47,0,41.93,16.18t16.45,41.12q0,23.16-17,39t-41.81,15.84q-25.48,0-41.93-15.73T-130.61,76.3q0-24.72,16.46-40.45T-71.77,20.12Zm0,30.34q-11.06,0-17.81,7.08T-96.34,76.3q0,11.46,6.76,18.65T-72,102.14q10.59,0,17.36-7.08T-47.88,77q0-12.34-6.31-19.43T-71.77,50.46Z" transform="translate(219.63 25.24)"/><path class="cls-1" d="M-7.39,24.32H28v13q9.09-17.25,29.14-17.25,21.69,0,29.61,17.25,10.49-17.25,31.7-17.25,16.1,0,25.65,9.56a29.3,29.3,0,0,1,7.46,12.24q2.1,6.88,2.09,19v71.33H118.26v-65c0-5.43-1.21-9.75-3.61-12.93a12,12,0,0,0-10.14-4.78,12,12,0,0,0-10.14,4.78c-2.42,3.18-3.62,7.5-3.62,12.93v65H55.32V68.38q0-8.86-3.73-13.87a12.1,12.1,0,0,0-10.26-5,12.22,12.22,0,0,0-10.49,5.12Q28.05,59.06,28,68.38v63.87H-7.39Z" transform="translate(219.63 25.24)"/><path class="cls-1" d="M161.24,24.32h35.43v13q9.11-17.25,29.14-17.25,21.69,0,29.61,17.25,10.49-17.25,31.71-17.25,16.08,0,25.64,9.56a29.3,29.3,0,0,1,7.46,12.24q2.1,6.88,2.1,19v71.33H286.89v-65c0-5.43-1.2-9.75-3.61-12.93a13.15,13.15,0,0,0-20.28,0c-2.41,3.18-3.62,7.5-3.62,12.93v65H224V68.38q0-8.86-3.73-13.87a12.1,12.1,0,0,0-10.26-5,12.23,12.23,0,0,0-10.49,5.12q-2.79,4.44-2.8,13.76v63.87H161.24Z" transform="translate(219.63 25.24)"/><path class="cls-1" d="M429.37,20.12q25.47,0,41.93,16.18t16.46,41.12q0,23.16-17,39t-41.82,15.84q-25.47,0-41.93-15.73T370.54,76.3q0-24.72,16.45-40.45T429.37,20.12Zm0,30.34q-11,0-17.81,7.08T404.8,76.3q0,11.46,6.76,18.65t17.59,7.19q10.59,0,17.35-7.08T453.27,77q0-12.34-6.31-19.43T429.37,50.46Z" transform="translate(219.63 25.24)"/>
    <path class="cls-1" d="M346.93-25.24a18.71,18.71,0,0,1,14,5.6q5.47,5.6,5.48,14.35a18.83,18.83,0,0,1-5.6,13.87,19.12,19.12,0,0,1-14.11,5.59,19.12,19.12,0,0,1-14.11-5.59A19.12,19.12,0,0,1,327-5.53a19.12,19.12,0,0,1,5.59-14.11A19.45,19.45,0,0,1,346.93-25.24Z" transform="translate(219.63 25.24)"/>
    <rect class="cls-1" x="547.82" y="44.36" width="36.98" height="112.63"/>
  </svg>
