<svg id="moon-stars-duotone" xmlns="http://www.w3.org/2000/svg" width="62.976" height="62.976" viewBox="0 0 62.976 62.976">
  <path id="Path_4195" data-name="Path 4195" d="M263.872,3.936,261.9,0l-1.968,3.936L256,5.9l3.936,1.968,1.968,3.936,1.968-3.936L267.808,5.9ZM280.932,22.3l-3.284-6.556L274.364,22.3l-6.556,3.284,6.556,3.284,3.284,6.556,3.284-6.556,6.556-3.284Z" transform="translate(-224.512)" fill="#fff" opacity="0.4"/>
  <path id="Path_4196" data-name="Path 4196" d="M40.861,164.659a1.105,1.105,0,0,1,1.058,1.784,23.6,23.6,0,1,1-14-38.093,1.111,1.111,0,0,1,.344,2.054,18.5,18.5,0,0,0,12.6,34.256Z" transform="translate(0 -112.211)" fill="#fff"/>
</svg>
