<svg id="moon-stars-duotone" xmlns="http://www.w3.org/2000/svg" width="96.303" height="96.303" viewBox="0 0 96.303 96.303">
  <path id="Path_4195" data-name="Path 4195" d="M268.038,6.019,265.028,0l-3.009,6.019L256,9.028l6.019,3.009,3.009,6.019,3.009-6.019,6.019-3.009ZM294.126,34.1,289.1,24.076,284.082,34.1l-10.025,5.022,10.025,5.022L289.1,54.171l5.022-10.025,10.025-5.022Z" transform="translate(-207.848)" fill="#01122c" opacity="0.4"/>
  <path id="Path_4196" data-name="Path 4196" d="M62.484,184.085a1.69,1.69,0,0,1,1.618,2.727A36.094,36.094,0,1,1,42.7,128.56a1.7,1.7,0,0,1,.527,3.141,28.287,28.287,0,0,0,19.261,52.384Z" transform="translate(0 -103.883)" fill="#01122c"/>
</svg>
