<?xml version="1.0" encoding="utf-8"?>
<!-- Generator: Adobe Illustrator 16.0.0, SVG Export Plug-In . SVG Version: 6.00 Build 0)  -->
<!DOCTYPE svg PUBLIC "-//W3C//DTD SVG 1.1//EN" "http://www.w3.org/Graphics/SVG/1.1/DTD/svg11.dtd">
<svg version="1.1" id="Layer_1" xmlns="http://www.w3.org/2000/svg" xmlns:xlink="http://www.w3.org/1999/xlink" x="0px" y="0px"
	 width="41.898px" height="32.588px" viewBox="0 0 41.898 32.588" enable-background="new 0 0 41.898 32.588" xml:space="preserve">
<path id="Path_4193" opacity="0.4" fill="#F9BEBD" enable-background="new    " d="M17.663,0.445
	c-1.04-0.755-2.495-0.525-3.251,0.514L6.644,11.638h5.76l5.776-7.942C18.934,2.655,18.703,1.2,17.663,0.445z M27.487,0.959
	c-0.738-1.053-2.189-1.308-3.243-0.57c-1.053,0.738-1.308,2.19-0.569,3.243c0.016,0.022,0.031,0.044,0.048,0.065l5.775,7.942h5.757
	L27.487,0.959z"/>
<path id="Path_4194" fill="#F9BEBD" d="M40.152,11.638H1.746C0.782,11.638,0,12.42,0,13.384l0,0v1.164
	c0,0.964,0.782,1.746,1.746,1.746l0,0h0.582l1.9,13.3c0.245,1.722,1.719,3,3.457,3h26.529c1.739,0,3.213-1.278,3.457-3l1.9-13.3
	h0.582c0.964,0,1.746-0.782,1.746-1.746l0,0v-1.164c0-0.964-0.782-1.746-1.746-1.746C40.153,11.638,40.153,11.638,40.152,11.638z
	 M14.552,26.187c0,0.964-0.781,1.746-1.745,1.746c-0.965,0-1.746-0.782-1.746-1.746v-8.148c0-0.965,0.781-1.746,1.746-1.746
	c0.964,0,1.745,0.781,1.745,1.746l0,0V26.187z M22.699,26.187c0,0.964-0.781,1.746-1.746,1.746c-0.964,0-1.746-0.782-1.746-1.746
	v-8.148c0-0.965,0.782-1.746,1.746-1.746c0.965,0,1.746,0.781,1.746,1.746l0,0V26.187z M30.846,26.187
	c0,0.964-0.782,1.746-1.746,1.746c-0.965,0-1.746-0.782-1.746-1.746v-8.148c0-0.965,0.781-1.746,1.746-1.746
	c0.964,0,1.746,0.781,1.746,1.746l0,0V26.187z"/>
</svg>
