<?xml version="1.0" encoding="utf-8"?>
<!-- Generator: Adobe Illustrator 16.0.0, SVG Export Plug-In . SVG Version: 6.00 Build 0)  -->
<!DOCTYPE svg PUBLIC "-//W3C//DTD SVG 1.1//EN" "http://www.w3.org/Graphics/SVG/1.1/DTD/svg11.dtd">
<svg version="1.1" id="Layer_1" xmlns="http://www.w3.org/2000/svg" xmlns:xlink="http://www.w3.org/1999/xlink" x="0px" y="0px"
	 width="22.625px" height="21.572px" viewBox="0 0 22.625 21.572" enable-background="new 0 0 22.625 21.572" xml:space="preserve">
<path id="Path_4172" d="M11.797,0.301l3.079,6.238c0.076,0.157,0.227,0.267,0.399,0.294l6.884,1
	c0.295,0.043,0.498,0.317,0.455,0.612c-0.017,0.117-0.071,0.225-0.156,0.308l-4.981,4.855c-0.126,0.123-0.185,0.301-0.155,0.476
	l1.178,6.854c0.051,0.294-0.146,0.572-0.439,0.623c-0.117,0.021-0.238,0.002-0.344-0.054l-6.156-3.235
	c-0.156-0.083-0.344-0.083-0.5,0l-6.157,3.235c-0.263,0.139-0.589,0.038-0.728-0.226C4.119,21.177,4.1,21.056,4.12,20.938
	l1.177-6.854c0.03-0.175-0.028-0.353-0.156-0.476l-4.98-4.855c-0.213-0.208-0.217-0.551-0.008-0.764
	C0.236,7.905,0.344,7.85,0.461,7.833l6.882-1C7.519,6.808,7.67,6.698,7.749,6.539l3.079-6.238c0.13-0.268,0.453-0.379,0.721-0.248
	C11.657,0.105,11.744,0.193,11.797,0.301z" fill="#ACF0B5"/>
</svg>
