<svg xmlns="http://www.w3.org/2000/svg" width="68.583" height="54.866" viewBox="0 0 68.583 54.866">
  <g id="truck-duotone" transform="translate(0 0)">
    <path id="Path_4199" data-name="Path 4199" d="M104.573,352a8.573,8.573,0,1,0,8.573,8.573A8.573,8.573,0,0,0,104.573,352Zm30.862,0a8.573,8.573,0,1,0,8.573,8.573A8.573,8.573,0,0,0,135.435,352Z" transform="translate(-85.713 -314.28)" fill="#fff" opacity="0.4"/>
    <path id="Path_4200" data-name="Path 4200" d="M66.868,37.72H65.153V26.136A5.144,5.144,0,0,0,63.642,22.5L52.937,11.8A5.144,5.144,0,0,0,49.3,10.287H44.579V5.144A5.144,5.144,0,0,0,39.435,0H5.144A5.144,5.144,0,0,0,0,5.144V39.435a5.144,5.144,0,0,0,5.144,5.144H7.09a11.911,11.911,0,0,1,23.6,0h7.205a11.911,11.911,0,0,1,23.6,0h5.375a1.715,1.715,0,0,0,1.715-1.715V39.435A1.715,1.715,0,0,0,66.868,37.72ZM60.01,27.433H44.579v-12H49.3L60.01,26.136Z" transform="translate(0)" fill="#fff"/>
  </g>
</svg>
