<svg id="truck-duotone" xmlns="http://www.w3.org/2000/svg" width="104.876" height="83.901" viewBox="0 0 104.876 83.901">
  <path id="Path_4199" data-name="Path 4199" d="M109.11,352a13.11,13.11,0,1,0,13.11,13.11A13.11,13.11,0,0,0,109.11,352Zm47.194,0a13.11,13.11,0,1,0,13.11,13.11A13.11,13.11,0,0,0,156.3,352Z" transform="translate(-80.269 -294.318)" fill="#01122c" opacity="0.4"/>
  <path id="Path_4200" data-name="Path 4200" d="M102.255,57.682H99.633V39.968a7.866,7.866,0,0,0-2.311-5.555L80.952,18.042A7.866,7.866,0,0,0,75.4,15.731H68.17V7.866A7.866,7.866,0,0,0,60.3,0H7.866A7.866,7.866,0,0,0,0,7.866V60.3A7.866,7.866,0,0,0,7.866,68.17h2.976a18.214,18.214,0,0,1,36.087,0H57.948a18.214,18.214,0,0,1,36.087,0h8.22a2.622,2.622,0,0,0,2.622-2.622V60.3A2.622,2.622,0,0,0,102.255,57.682ZM91.767,41.951H68.17V23.6H75.4L91.767,39.968Z" transform="translate(0)" fill="#01122c"/>
</svg>
